<svg id="beer" xmlns="http://www.w3.org/2000/svg" width="27.563" height="32" viewBox="0 0 27.563 32">
  <g id="Group_507" data-name="Group 507" transform="translate(15.031 28.206)">
    <g id="Group_506" data-name="Group 506">
      <path id="Path_842" data-name="Path 842" d="M276.625,451.29a.625.625,0,1,0,.625.625A.625.625,0,0,0,276.625,451.29Z" transform="translate(-276 -451.29)"/>
    </g>
  </g>
  <g id="Group_509" data-name="Group 509" transform="translate(6.25 12.518)">
    <g id="Group_508" data-name="Group 508">
      <path id="Path_843" data-name="Path 843" d="M136.125,200.29a.625.625,0,0,0-.625.625v11.938a.625.625,0,0,0,1.25,0V200.915A.625.625,0,0,0,136.125,200.29Z" transform="translate(-135.5 -200.29)"/>
    </g>
  </g>
  <g id="Group_511" data-name="Group 511" transform="translate(11.25 12.518)">
    <g id="Group_510" data-name="Group 510" transform="translate(0)">
      <path id="Path_844" data-name="Path 844" d="M216.125,200.29a.625.625,0,0,0-.625.625v11.938a.625.625,0,0,0,1.25,0V200.915A.625.625,0,0,0,216.125,200.29Z" transform="translate(-215.5 -200.29)"/>
    </g>
  </g>
  <g id="Group_513" data-name="Group 513">
    <g id="Group_512" data-name="Group 512">
      <path id="Path_845" data-name="Path 845" d="M59.938,10.063H56.813V8.171a3.114,3.114,0,0,0-1.191-5.536,3.16,3.16,0,0,0-1.793.129,3.13,3.13,0,0,0-2.64-1.452,3.084,3.084,0,0,0-1.178.232,5.593,5.593,0,0,0-8.542.992A5.638,5.638,0,0,0,35.5,8.143v7.5a1.893,1.893,0,0,0,1.906,1.875,1.873,1.873,0,0,0,.656-.118V28.875A3.129,3.129,0,0,0,41.188,32h12.5a3.129,3.129,0,0,0,3.125-3.125V27h3.125a3.129,3.129,0,0,0,3.125-3.125V13.188A3.129,3.129,0,0,0,59.938,10.063ZM55.563,28.25H53.656a.622.622,0,1,0,0,1.244h1.8a1.884,1.884,0,0,1-1.767,1.256h-12.5A1.878,1.878,0,0,1,39.42,29.5h9.237a.625.625,0,1,0,0-1.25H39.313V11.219a4.339,4.339,0,0,0,3.259-2.407.463.463,0,0,1,.332.13,3.749,3.749,0,0,0,5.324-.068.206.206,0,0,1,.148-.062c.973,0,1.61.208,1.892.618a2.1,2.1,0,0,1,.233,1.184v2.529a1.878,1.878,0,0,0,1.25,1.768v10.17a.625.625,0,0,0,1.25,0V14.911a1.878,1.878,0,0,0,1.25-1.767v-4.4a3.316,3.316,0,0,0,1.313,0ZM53.908,7.309A.625.625,0,0,0,53,7.866v5.277a.625.625,0,1,1-1.25,0V10.615A3.181,3.181,0,0,0,51.3,8.72a3.32,3.32,0,0,0-2.921-1.158,1.462,1.462,0,0,0-1.047.444,2.5,2.5,0,0,1-3.549.045,1.712,1.712,0,0,0-1.208-.488,1.256,1.256,0,0,0-1.122.7,3.1,3.1,0,0,1-2.768,1.756.625.625,0,0,0-.62.625v4.97a.675.675,0,0,1-.656.655.65.65,0,0,1-.656-.625v-7.5a4.385,4.385,0,0,1,4.4-4.366,4.458,4.458,0,0,1,.568.036.625.625,0,0,0,.625-.314,4.35,4.35,0,0,1,7.075-.772.625.625,0,0,0,.8.112,1.809,1.809,0,0,1,.97-.276,1.877,1.877,0,0,1,1.77,1.254.625.625,0,0,0,.938.312,1.875,1.875,0,0,1,2.867,1.116A1.921,1.921,0,0,1,53.908,7.309Zm2.9,6.5h2.5V23.25h-2.5Zm5,10.063a1.877,1.877,0,0,1-1.875,1.875H56.813V24.5h3.125a.625.625,0,0,0,.625-.625V13.188a.625.625,0,0,0-.625-.625H56.813v-1.25h3.125a1.877,1.877,0,0,1,1.875,1.875Z" transform="translate(-35.5)"/>
    </g>
  </g>
</svg>
