<svg xmlns="http://www.w3.org/2000/svg" width="48" height="48" viewBox="0 0 48 48"><g transform="translate(-141 -294)"><rect width="48" height="48" rx="24" transform="translate(141 294)" opacity="0.27"/><g transform="translate(148.988 304.983)"><path d="M29.4,10.934H24.856L22.726,5.5H9.225l-2.13,5.434h-.7V8.217H3.2v2.717h-.64A2.584,2.584,0,0,0,0,13.542V29.5a2.6,2.6,0,0,0,2.574,2.626h26.8A2.6,2.6,0,0,0,31.951,29.5V13.542A2.584,2.584,0,0,0,29.4,10.934ZM4.26,9.3H5.325v1.63H4.26ZM30.886,29.5a1.526,1.526,0,0,1-1.509,1.539H2.574A1.526,1.526,0,0,1,1.065,29.5V13.542a1.508,1.508,0,0,1,1.491-1.521h5.26l2.13-5.434H22.005l2.13,5.434H29.4a1.508,1.508,0,0,1,1.491,1.521V29.5Z" transform="translate(0 -5.5)" fill="#fff"/><path d="M21.585,14.5a9.783,9.783,0,0,0,0,19.562,9.783,9.783,0,0,0,0-19.562Zm0,18.475a8.7,8.7,0,1,1,8.52-8.694A8.619,8.619,0,0,1,21.585,32.975Z" transform="translate(-5.61 -9.61)" fill="#fff"/><path d="M24.39,20.5a6.522,6.522,0,1,0,6.39,6.521A6.464,6.464,0,0,0,24.39,20.5Zm0,11.954a5.435,5.435,0,1,1,5.325-5.434A5.386,5.386,0,0,1,24.39,32.454Z" transform="translate(-8.415 -12.349)" fill="#fff"/><path d="M50.13,19.5a2.174,2.174,0,1,0,2.13,2.174A2.154,2.154,0,0,0,50.13,19.5Zm0,3.26A1.087,1.087,0,1,1,51.2,21.674,1.077,1.077,0,0,1,50.13,22.76Z" transform="translate(-22.439 -11.893)" fill="#fff"/></g></g></svg>