<svg id="cheers" xmlns="http://www.w3.org/2000/svg" width="32" height="32" viewBox="0 0 32 32">
  <path id="cheers-2" data-name="cheers" d="M-448.124-715.2l-.568-1.966a1.872,1.872,0,0,1-1.675-1.385,1.851,1.851,0,0,1,.14-1.331h0a1.867,1.867,0,0,1-.786-1.082,1.843,1.843,0,0,1,.138-1.33h0a1.87,1.87,0,0,1-.785-1.084,1.848,1.848,0,0,1,.138-1.33h0a1.867,1.867,0,0,1-.785-1.083,1.862,1.862,0,0,1,.856-2.1h0a4.884,4.884,0,0,1,.65-2.645,3.628,3.628,0,0,0,.364-2.766c0-.007-.113-.418-.268-1l-.247-.923c-.767-2.861-.957-3.569-.969-3.611a.626.626,0,0,1,.441-.765l2.415-.647a.649.649,0,0,1,.163-.021.624.624,0,0,1,.6.462c.292,1.091,1.213,4.528,1.483,5.535.014.056.031.11.045.154l0,.005h0a1.873,1.873,0,0,1,.867-.513,1.89,1.89,0,0,1,.487-.064,1.866,1.866,0,0,1,1.561.842l1.111,1.683a1.868,1.868,0,0,0,1.19.8l3.306.676a.626.626,0,0,1,.5.611v7.732a.627.627,0,0,1-.257.505l-2.4,1.742.731,2.612a.621.621,0,0,1-.059.477.628.628,0,0,1-.38.294l-7.246,1.941a.629.629,0,0,1-.162.022A.625.625,0,0,1-448.124-715.2Zm2.642-4.013a1.876,1.876,0,0,1-1.383,1.664l-.593.159.363,1.256,6.044-1.62-.64-2.287a.591.591,0,0,1-.062-.171h0Zm-2.03-.75-1.21.323a.623.623,0,0,0-.375.285.625.625,0,0,0-.065.483.626.626,0,0,0,.6.462.634.634,0,0,0,.163-.021l1.207-.323a.624.624,0,0,0,.378-.286.624.624,0,0,0,.065-.482.626.626,0,0,0-.6-.463A.617.617,0,0,0-447.512-719.964Zm.09-6.494a1.852,1.852,0,0,1-.2.7h0a1.869,1.869,0,0,1,.785,1.083,1.868,1.868,0,0,1-.139,1.328h0a1.87,1.87,0,0,1,.786,1.084,1.847,1.847,0,0,1-.139,1.331h0a1.885,1.885,0,0,1,.521.508h0l3.728-1h0l-1.618-6.037h0Zm-.738,4.078-1.208.323a.625.625,0,0,0-.377.286.621.621,0,0,0-.065.482.625.625,0,0,0,.6.463.634.634,0,0,0,.163-.022l1.207-.323a.622.622,0,0,0,.377-.285.622.622,0,0,0,.066-.483.625.625,0,0,0-.6-.462A.637.637,0,0,0-448.16-722.379Zm2.58-11.044a.624.624,0,0,0-.464.6h0a3.619,3.619,0,0,0,.922.758,4.854,4.854,0,0,1,2.279,2.972l.47,1.754c.345,1.288.441,1.645.628,2.342l.194.722.641,2.39v.005l0,.012.136.486,1.771-1.284v-6.9l-2.807-.575a3.109,3.109,0,0,1-1.981-1.339l-1.111-1.684a.625.625,0,0,0-.522-.281A.612.612,0,0,0-445.579-733.423Zm-3.227,8.629-1.209.323a.626.626,0,0,0-.376.286.624.624,0,0,0-.065.482.625.625,0,0,0,.6.463.627.627,0,0,0,.162-.021l1.208-.324a.622.622,0,0,0,.38-.292.621.621,0,0,0,.063-.475.624.624,0,0,0-.6-.463A.624.624,0,0,0-448.806-724.794Zm-.647-2.415-.537.145-.077.021-.613.165h0a.624.624,0,0,0-.422.761.627.627,0,0,0,.6.463.629.629,0,0,0,.162-.021l1.206-.324a.619.619,0,0,0,.381-.292.621.621,0,0,0,.062-.475.627.627,0,0,0-.605-.464A.62.62,0,0,0-449.454-727.209Zm1.707-.456h0l3.728-1-.028-.1a3.616,3.616,0,0,0-1.7-2.213,4.926,4.926,0,0,1-2.279-2.97l-.674-2.518-1.21.323.676,2.519a4.856,4.856,0,0,1-.489,3.712,3.671,3.671,0,0,0-.48,1.612h0l.426-.114a1.856,1.856,0,0,1,.483-.064A1.88,1.88,0,0,1-447.747-727.665Zm-2.809-10.9.325,1.21,1.209-.324-.323-1.209Zm-9.549,23.789-7.245-1.941a.618.618,0,0,1-.379-.291.618.618,0,0,1-.062-.475l.711-2.609-2.413-1.75a.627.627,0,0,1-.258-.505v-7.732a.626.626,0,0,1,.5-.611l3.307-.676a1.869,1.869,0,0,0,1.189-.8l1.111-1.683a1.867,1.867,0,0,1,1.561-.842,1.878,1.878,0,0,1,.487.065,1.88,1.88,0,0,1,.867.513h0v0c.017-.053.032-.1.046-.159.1-.367.566-2.112.946-3.528l.537-2.007a.625.625,0,0,1,.6-.463.64.64,0,0,1,.162.021l2.414.646a.619.619,0,0,1,.378.29h0a.622.622,0,0,1,.063.474l-.066.246-.186.694-1.231,4.591v0a3.622,3.622,0,0,0,.364,2.765,4.893,4.893,0,0,1,.65,2.646h0a1.882,1.882,0,0,1,.857,2.1,1.868,1.868,0,0,1-.785,1.085h0a1.844,1.844,0,0,1,.139,1.328,1.874,1.874,0,0,1-.786,1.084h0a1.843,1.843,0,0,1,.14,1.329,1.869,1.869,0,0,1-.787,1.083h0a1.876,1.876,0,0,1,.14,1.33,1.874,1.874,0,0,1-1.67,1.385h0l-.541,1.96a.625.625,0,0,1-.6.459A.63.63,0,0,1-460.1-714.771Zm-5.641-5.442a.649.649,0,0,1-.038.122l-.636,2.335,6.041,1.619.346-1.252-.6-.162a1.875,1.875,0,0,1-1.383-1.663h0l-3.728-1Zm4.992.691a.628.628,0,0,0,.065.481.623.623,0,0,0,.377.286l1.208.323a.622.622,0,0,0,.163.022.625.625,0,0,0,.6-.464.628.628,0,0,0-.443-.767l-1.208-.323a.638.638,0,0,0-.163-.021A.626.626,0,0,0-460.753-719.522Zm-3.05-7.935c-.252.941-1.588,5.924-1.618,6.036h0l3.727,1h0a1.859,1.859,0,0,1,.521-.507h0a1.846,1.846,0,0,1-.138-1.328,1.871,1.871,0,0,1,.785-1.086h0a1.85,1.85,0,0,1-.139-1.328,1.871,1.871,0,0,1,.785-1.085h0a1.864,1.864,0,0,1-.2-.7h0l-3.727-1Zm3.7,5.521a.619.619,0,0,0,.066.48.628.628,0,0,0,.378.287l1.206.322a.642.642,0,0,0,.164.022.627.627,0,0,0,.6-.464.618.618,0,0,0-.065-.48.627.627,0,0,0-.377-.287l-1.208-.323a.632.632,0,0,0-.162-.021A.628.628,0,0,0-460.107-721.936Zm-2.5-11.227-1.111,1.683a3.1,3.1,0,0,1-1.981,1.339l-2.807.575v6.9l1.774,1.286v0l.067-.252.033-.123.046-.171h0l.072-.267.047-.176,1.8-6.725a4.857,4.857,0,0,1,2.279-2.971,3.614,3.614,0,0,0,.923-.759h0a.625.625,0,0,0-.464-.6.622.622,0,0,0-.161-.021A.625.625,0,0,0-462.6-733.163Zm3.143,8.812a.623.623,0,0,0,.065.48.623.623,0,0,0,.377.285l1.207.324a.622.622,0,0,0,.162.021.628.628,0,0,0,.605-.465.614.614,0,0,0-.066-.479.627.627,0,0,0-.378-.287l-1.207-.323a.628.628,0,0,0-.162-.021A.627.627,0,0,0-459.459-724.351Zm.647-2.415a.622.622,0,0,0,.066.481.626.626,0,0,0,.378.286l1.206.323a.64.64,0,0,0,.163.022.626.626,0,0,0,.6-.464.623.623,0,0,0-.421-.76l-.008,0-1.221-.328a.614.614,0,0,0-.164-.022A.625.625,0,0,0-458.812-726.766Zm-.663-7.184a4.862,4.862,0,0,1-.87,1.743l0,0-.007.01-.013.019a4.846,4.846,0,0,1-1.386,1.193,3.59,3.59,0,0,0-1.332,1.333,3.66,3.66,0,0,0-.381.941l0,.015,0,.014,0,.013,3.727,1h0a1.869,1.869,0,0,1,1.543-.814,1.892,1.892,0,0,1,.488.065l.426.114h0a3.66,3.66,0,0,0-.48-1.612,4.859,4.859,0,0,1-.488-3.712l.675-2.519-1.21-.323Zm1-3.724,1.209.324.325-1.21-1.21-.324Zm6.785-5.136a.62.62,0,0,1-.182-.441.618.618,0,0,1,.183-.441l1.25-1.25a.621.621,0,0,1,.442-.183.619.619,0,0,1,.441.182.62.62,0,0,1,.183.442.619.619,0,0,1-.183.442l-1.249,1.249a.62.62,0,0,1-.441.183A.623.623,0,0,1-451.692-742.81Zm-5,0-1.25-1.249a.627.627,0,0,1,0-.883.62.62,0,0,1,.442-.183.623.623,0,0,1,.442.182l1.249,1.251a.619.619,0,0,1,.183.441.619.619,0,0,1-.184.442.62.62,0,0,1-.441.183A.621.621,0,0,1-456.691-742.81Zm2.318-1.066v-2.25a.624.624,0,0,1,.624-.624.625.625,0,0,1,.625.624v2.25a.625.625,0,0,1-.625.624A.625.625,0,0,1-454.373-743.876Z" transform="translate(469.75 746.75)"/>
</svg>
