<svg id="drinker" xmlns="http://www.w3.org/2000/svg" width="32" height="32" viewBox="0 0 32 32">
  <path id="Path_1196" data-name="Path 1196" d="M291.912,139.9a.857.857,0,1,1-.856-.876A.866.866,0,0,1,291.912,139.9Zm0,0" transform="translate(-272.062 -130.173)"/>
  <path id="Path_1197" data-name="Path 1197" d="M200.841,139.9a.857.857,0,1,1-.856-.876A.866.866,0,0,1,200.841,139.9Zm0,0" transform="translate(-186.683 -130.173)"/>
  <path id="Path_1198" data-name="Path 1198" d="M221.225,187.277h-3.751a.722.722,0,0,0-.591.312.756.756,0,0,0-.095.672,2.691,2.691,0,0,0,5.123,0,.756.756,0,0,0-.095-.672A.722.722,0,0,0,221.225,187.277Zm-1.875,1.89a1.768,1.768,0,0,1-1.548-.93h3.1A1.768,1.768,0,0,1,219.35,189.167Zm0,0" transform="translate(-203.202 -175.339)"/>
  <path id="Path_1199" data-name="Path 1199" d="M31.177,28.916h-.621V27.388c0-.322-.014-.646-.041-.966A2.8,2.8,0,0,0,31.4,24.37a2.764,2.764,0,0,0-2.257-2.737v-.381a1.783,1.783,0,0,0,.057-2.4,1.72,1.72,0,0,0-.937-.551,1.715,1.715,0,0,0-1.51-.918,1.686,1.686,0,0,0-.361.039,1.7,1.7,0,0,0-2.3-.606,1.718,1.718,0,0,0-1.361-.71h-.016a1.667,1.667,0,0,0-.855.236q-.385-.086-.776-.143a5.3,5.3,0,0,0,1.458-2.95h.079a2.042,2.042,0,0,0,2.017-2.062v-.622a1.706,1.706,0,0,0-1.685-1.722H22.6V8.489c0-.082,0-.163-.006-.244v-4.9a2.871,2.871,0,0,0-.974-2.163,2.737,2.737,0,0,0-2.24-.65L12.923,1.566A3.846,3.846,0,0,0,9.706,5.41V8.184c-.006.1-.009.2-.009.3v.353H9.339a1.706,1.706,0,0,0-1.685,1.723v.622a2.042,2.042,0,0,0,2.017,2.062H9.75a5.3,5.3,0,0,0,1.419,2.91A10.885,10.885,0,0,0,4.6,19.438a11.368,11.368,0,0,0-3.2,7.95v1.528H.822A.833.833,0,0,0,0,29.757v1.9a.833.833,0,0,0,.823.841h26.4a.48.48,0,0,0,0-.96H.938V29.875H9.686a.48.48,0,0,0,0-.959H7.1L2.76,24.476a10.2,10.2,0,0,1,9.475-7.43,3.478,3.478,0,0,0,3.245,2.316h1.336a3.478,3.478,0,0,0,3.24-2.3,9.929,9.929,0,0,1,1.082.12A1.77,1.77,0,0,0,21,17.86a1.818,1.818,0,0,0,.02.268,1.717,1.717,0,0,0-.806.5,1.786,1.786,0,0,0,.009,2.408V25.3a4.593,4.593,0,0,0,1.742,3.613H11.708a.48.48,0,0,0,0,.959H31.062v1.664H29.205a.48.48,0,0,0,0,.96h1.972A.833.833,0,0,0,32,31.658v-1.9a.833.833,0,0,0-.823-.841Zm-25.4,0H2.348V27.388a10.523,10.523,0,0,1,.157-1.815Zm24.69-4.546a1.812,1.812,0,0,1-1.4,1.775q.041-.226.061-.459a1.4,1.4,0,0,0,.017-2.626v-.446a1.815,1.815,0,0,1,1.319,1.756ZM10.645,5.41a2.9,2.9,0,0,1,2.423-2.9l6.456-1.032a1.814,1.814,0,0,1,1.485.431,1.9,1.9,0,0,1,.646,1.434V5.47a5.065,5.065,0,0,0-4.157-2.2H14.8a5.064,5.064,0,0,0-4.154,2.194Zm8.592,11.129A2.538,2.538,0,0,1,16.816,18.4H15.48a2.539,2.539,0,0,1-2.421-1.863.477.477,0,0,0-.229-.29,4.291,4.291,0,0,1-2.189-3.529.484.484,0,0,0-.195-.365.464.464,0,0,0-.274-.09.456.456,0,0,0-.126.018A.173.173,0,0,1,10,12.29H9.671a1.092,1.092,0,0,1-1.078-1.1v-.622A.756.756,0,0,1,9.339,9.8h.827a.475.475,0,0,0,.469-.48V8.65a.5.5,0,0,0,.009-.1V8.217A4.209,4.209,0,0,1,14.8,4.231h2.7a4.21,4.21,0,0,1,4.157,4.03v.292a.485.485,0,0,0,.006.073v.694a.475.475,0,0,0,.469.48h.827a.756.756,0,0,1,.746.763v.622a1.092,1.092,0,0,1-1.078,1.1H22.3a.174.174,0,0,1-.047-.007.46.46,0,0,0-.4.072.483.483,0,0,0-.195.365,4.292,4.292,0,0,1-2.189,3.529.478.478,0,0,0-.229.29ZM20.9,19.28a.758.758,0,0,1,.648-.249.5.5,0,0,0,.477-.233.528.528,0,0,0,.015-.54.812.812,0,0,1-.1-.395.8.8,0,0,1,.234-.563.764.764,0,0,1,.546-.233h.007a.787.787,0,0,1,.741.574.513.513,0,0,0,.381.364.5.5,0,0,0,.493-.171.772.772,0,0,1,.594-.28.787.787,0,0,1,.747.567.515.515,0,0,0,.288.328.5.5,0,0,0,.431-.017.755.755,0,0,1,.356-.088.782.782,0,0,1,.737.536.507.507,0,0,0,.458.347h0a.767.767,0,0,1,.551.266.8.8,0,0,1,.2.592.789.789,0,0,1-.724.734.759.759,0,0,1-.515-.153.955.955,0,0,0-.576-.191.991.991,0,0,0-.4.083.766.766,0,0,1-.66-.024.941.941,0,0,0-.875,0,.766.766,0,0,1-.716,0,.94.94,0,0,0-.89,0,.765.765,0,0,1-.7.012.949.949,0,0,0-.844,0,.758.758,0,0,1-.379.077.8.8,0,0,1-.528-1.34Zm.262,6.024V21.552a1.68,1.68,0,0,0,.217.026,1.7,1.7,0,0,0,.835-.171.034.034,0,0,1,.031,0,1.672,1.672,0,0,0,.743.173,1.691,1.691,0,0,0,.8-.2.022.022,0,0,1,.02,0,1.685,1.685,0,0,0,1.58.006.022.022,0,0,1,.018,0,1.692,1.692,0,0,0,.784.193,1.673,1.673,0,0,0,.673-.141.053.053,0,0,1,.047,0,1.7,1.7,0,0,0,1.02.341c.037,0,.075,0,.113,0a1.693,1.693,0,0,0,.172-.021V25.3a3.524,3.524,0,1,1-7.046,0Zm7.6,1.842a2.653,2.653,0,0,0,.845-.163c.005.135.008.271.008.406v1.528H27.4a4.571,4.571,0,0,0,1.36-1.771Zm0,0" transform="translate(0 -0.499)"/>
  <path id="Path_1200" data-name="Path 1200" d="M387.918,345.171a.475.475,0,0,0,.469-.48v-3.7a.469.469,0,1,0-.938,0v3.7A.475.475,0,0,0,387.918,345.171Zm0,0" transform="translate(-363.234 -318.779)"/>
  <path id="Path_1201" data-name="Path 1201" d="M425.238,345.171a.474.474,0,0,0,.469-.48v-3.7a.469.469,0,1,0-.938,0v3.7A.474.474,0,0,0,425.238,345.171Zm0,0" transform="translate(-398.221 -318.779)"/>
  <path id="Path_1202" data-name="Path 1202" d="M351.418,344.691v-3.7a.469.469,0,1,0-.938,0v3.7a.469.469,0,1,0,.938,0Zm0,0" transform="translate(-328.575 -318.779)"/>
</svg>
