<svg xmlns="http://www.w3.org/2000/svg" width="32" height="32" viewBox="0 0 32 32">
  <g id="home" transform="translate(0)">
    <path id="home-2" data-name="home" d="M111.717,858V840.362l-1.39,1.279a.795.795,0,0,1-1.115-.041.781.781,0,0,1,.041-1.109L125,826l5.186,4.772v-1.8h5.925v7.247l4.637,4.267a.78.78,0,0,1,.041,1.109.794.794,0,0,1-1.115.04l-1.389-1.279V858Zm16.034-14.488a1.836,1.836,0,0,1,1.842,1.827v11.094h7.113V838.908L125,828.137l-11.705,10.771v17.524h7.113V845.339a1.836,1.836,0,0,1,1.842-1.827Zm-5.764,1.827v11.094h6.027V845.339a.261.261,0,0,0-.263-.259h-5.5A.261.261,0,0,0,121.987,845.339Zm9.779-13.114,2.767,2.546v-4.227h-2.767Z" transform="translate(-109 -826)"/>
  </g>
</svg>
