<svg id="location-pin" xmlns="http://www.w3.org/2000/svg" width="26.122" height="32" viewBox="0 0 26.122 32">
  <path id="pin" d="M-4928.939,996a2.885,2.885,0,0,1-2.241-1.062l-7.71-9.43a13.7,13.7,0,0,1-3.062-9.843A12.782,12.782,0,0,1-4929.286,964h.694a12.782,12.782,0,0,1,12.666,11.665,13.7,13.7,0,0,1-3.062,9.843l-7.711,9.43A2.882,2.882,0,0,1-4928.939,996Zm-.347-30.834a11.514,11.514,0,0,0-7.82,3.052,11.512,11.512,0,0,0-3.684,7.542,12.549,12.549,0,0,0,.526,4.777,12.534,12.534,0,0,0,2.276,4.233l7.711,9.43a1.723,1.723,0,0,0,1.338.635,1.723,1.723,0,0,0,1.338-.635l7.71-9.43a12.531,12.531,0,0,0,2.277-4.233,12.523,12.523,0,0,0,.526-4.777,11.513,11.513,0,0,0-3.685-7.542,11.509,11.509,0,0,0-7.819-3.052Z" transform="translate(4942 -964.001)"/>
  <g id="location-beer" transform="translate(-23.895 -170.501)">
    <path id="Path_842" data-name="Path 842" d="M276.357,451.29a.357.357,0,1,0,.357.357A.357.357,0,0,0,276.357,451.29Z" transform="translate(-237.854 -260.329)"/>
    <path id="Path_843" data-name="Path 843" d="M135.857,200.29a.357.357,0,0,0-.357.357v6.821a.357.357,0,0,0,.714,0v-6.821A.357.357,0,0,0,135.857,200.29Z" transform="translate(-102.372 -18.294)"/>
    <path id="Path_844" data-name="Path 844" d="M215.857,200.29a.357.357,0,0,0-.357.357v6.821a.357.357,0,1,0,.714,0v-6.821A.357.357,0,0,0,215.857,200.29Z" transform="translate(-179.515 -18.294)"/>
    <path id="Path_845" data-name="Path 845" d="M49.464,5.75H47.679V4.669A1.78,1.78,0,0,0,47,1.506a1.806,1.806,0,0,0-1.025.074A1.789,1.789,0,0,0,44.464.75a1.762,1.762,0,0,0-.673.133,3.2,3.2,0,0,0-4.881.567,3.222,3.222,0,0,0-3.41,3.2V8.939a1.082,1.082,0,0,0,1.089,1.071,1.07,1.07,0,0,0,.375-.068V16.5a1.788,1.788,0,0,0,1.786,1.786h7.143A1.788,1.788,0,0,0,47.679,16.5V15.429h1.786a1.788,1.788,0,0,0,1.786-1.786V7.536A1.788,1.788,0,0,0,49.464,5.75Zm-2.5,10.393h-1.09a.355.355,0,1,0,0,.711H46.9a1.076,1.076,0,0,1-1.01.718H38.75a1.073,1.073,0,0,1-1.01-.714h5.278a.357.357,0,0,0,0-.714h-5.34V6.411a2.48,2.48,0,0,0,1.862-1.375.265.265,0,0,1,.19.074,2.143,2.143,0,0,0,3.042-.039.118.118,0,0,1,.084-.036c.556,0,.92.119,1.081.353a1.2,1.2,0,0,1,.133.677V7.51a1.073,1.073,0,0,0,.714,1.01v5.811a.357.357,0,0,0,.714,0V8.52a1.073,1.073,0,0,0,.714-1.01V4.994a1.9,1.9,0,0,0,.75,0ZM46.019,4.177A.357.357,0,0,0,45.5,4.5V7.51a.357.357,0,0,1-.714,0V6.066a1.818,1.818,0,0,0-.259-1.083,1.9,1.9,0,0,0-1.669-.662.836.836,0,0,0-.6.254,1.428,1.428,0,0,1-2.028.025.978.978,0,0,0-.69-.279.718.718,0,0,0-.641.4,1.77,1.77,0,0,1-1.581,1,.357.357,0,0,0-.354.357v2.84a.386.386,0,0,1-.375.374.371.371,0,0,1-.375-.357V4.653a2.506,2.506,0,0,1,2.515-2.495,2.548,2.548,0,0,1,.324.021A.357.357,0,0,0,39.41,2a2.485,2.485,0,0,1,4.043-.441.357.357,0,0,0,.457.064,1.034,1.034,0,0,1,.554-.158,1.072,1.072,0,0,1,1.011.716.357.357,0,0,0,.536.179A1.072,1.072,0,0,1,47.65,3,1.1,1.1,0,0,1,46.019,4.177Zm1.66,3.716h1.429v5.393H47.679Zm2.857,5.75a1.073,1.073,0,0,1-1.071,1.071H47.679V14h1.786a.357.357,0,0,0,.357-.357V7.536a.357.357,0,0,0-.357-.357H47.679V6.464h1.786a1.073,1.073,0,0,1,1.071,1.071Z" transform="translate(-5.943 174.843)"/>
  </g>
</svg>
