<svg xmlns="http://www.w3.org/2000/svg" width="32" height="32" viewBox="0 0 32 32"><path d="M31.97,31.366,27.282,19.018a.469.469,0,0,0-.208-.242l-4.993-2.813,1.458-2.311a8.907,8.907,0,1,0-15.077,0L9.92,15.963,4.927,18.776a.469.469,0,0,0-.208.242L.031,31.366a.469.469,0,0,0,.668.575L8.235,27.7l7.535,4.245a.469.469,0,0,0,.46,0L23.766,27.7,31.3,31.941a.469.469,0,0,0,.668-.575Zm-15.5-7.07a1.4,1.4,0,0,0,.72-.576L21.2,17.355l2.032,9.563L16.469,30.73ZM9.255,13.151a7.968,7.968,0,1,1,13.491,0c-.063.1-6.239,9.894-6.347,10.063l0,0a.468.468,0,0,1-.793,0c-.063-.1-6.251-9.913-6.346-10.064l0,0ZM5.535,19.509,9.9,17.047l-.761,3.581a.469.469,0,1,0,.917.195l.737-3.469,4.014,6.366a1.408,1.408,0,0,0,.72.575V30.73L8.765,26.918l.905-4.26a.469.469,0,0,0-.917-.195l-.933,4.39L1.367,30.488ZM24.18,26.853,22.1,17.047l4.37,2.462,4.168,10.979Z" transform="translate(0 -0.001)" fill="#515c6f"/><path d="M-101.846-518.2a1,1,0,0,1-1-1v-4.085h-.058a.761.761,0,0,1-.76-.76V-527.1a1.7,1.7,0,0,1,.609-1.316l.04-.032a1.81,1.81,0,0,1,1.129-.391,1.881,1.881,0,0,1,.4.044,1.916,1.916,0,0,1,.53-.688,1.9,1.9,0,0,1,1.193-.423,1.9,1.9,0,0,1,1.385.6,1.035,1.035,0,0,1,.481-.117,1.037,1.037,0,0,1,.512.135,1.033,1.033,0,0,1,.358.341,1.337,1.337,0,0,1,.367-.051,1.374,1.374,0,0,1,.4.061,1.273,1.273,0,0,1,.857.874,1.322,1.322,0,0,1-.211,1.167,1.328,1.328,0,0,1-.421.364v.731h.864a1.374,1.374,0,0,1,1.373,1.373v2.8a1.374,1.374,0,0,1-1.373,1.373h-.864v1.059a.982.982,0,0,1-.287.7.989.989,0,0,1-.708.3Zm-.288-5.729v0a.038.038,0,0,0,0,.009v4.717a.291.291,0,0,0,.291.291h4.819a.291.291,0,0,0,.291-.291v-1.379c0-.011,0-.022,0-.034s0-.023,0-.034v-4.768q0-.017,0-.034c0-.011,0-.023,0-.034v-.9c-.1-.005-.253-.017-.409-.031v1.524a.868.868,0,0,1-.81.87l-.052,0a.859.859,0,0,1-.592-.235.867.867,0,0,1-.272-.628v-1.794a.056.056,0,0,0-.033-.052.04.04,0,0,0-.046,0l-.007.006h0a.4.4,0,0,0-.114.168.7.7,0,0,1-.2.28.768.768,0,0,1-.473.138,1.773,1.773,0,0,1-.245-.013.465.465,0,0,0-.055,0,.409.409,0,0,0-.337.169,1.831,1.831,0,0,1-1.5.781,1.884,1.884,0,0,1-.252-.017Zm6.967,2.962a.665.665,0,0,0,.664-.664v-2.8a.665.665,0,0,0-.664-.664h-.864v4.127Zm-7.408-6.926-.011.009-.014.011a1,1,0,0,0-.353.773v3.057a.051.051,0,0,0,.051.051h.025a.05.05,0,0,0,.033-.011v-1.662a.355.355,0,0,1,.16-.3.351.351,0,0,1,.194-.058.358.358,0,0,1,.142.029,1.209,1.209,0,0,0,.465.094,1.126,1.126,0,0,0,.918-.478,1.118,1.118,0,0,1,.917-.471,1.127,1.127,0,0,1,.142.009.926.926,0,0,0,.143.007h.043a1.082,1.082,0,0,1,.29-.405h0l.012-.011.015-.013a.747.747,0,0,1,.475-.172.757.757,0,0,1,.325.074.757.757,0,0,1,.439.691v1.792a.154.154,0,0,0,.049.113.159.159,0,0,0,.116.043.162.162,0,0,0,.145-.163V-526.8a.355.355,0,0,1,.123-.268.353.353,0,0,1,.232-.087.347.347,0,0,1,.051,0c.143.022.685.068.793.068a.6.6,0,0,0,.482-.241.609.609,0,0,0,.095-.546.579.579,0,0,0-.38-.39.681.681,0,0,0-.2-.03.6.6,0,0,0-.353.115.353.353,0,0,1-.208.067.36.36,0,0,1-.144-.03.35.35,0,0,1-.208-.287.323.323,0,0,0-.322-.289.322.322,0,0,0-.259.129.354.354,0,0,1-.282.141h-.02a.354.354,0,0,1-.285-.174,1.191,1.191,0,0,0-1.019-.582,1.194,1.194,0,0,0-1.158.927.354.354,0,0,1-.189.241.357.357,0,0,1-.157.036.355.355,0,0,1-.15-.033,1.162,1.162,0,0,0-.475-.1A1.11,1.11,0,0,0-102.576-527.9Z" transform="translate(115.397 533.155)" fill="#515c6f"/></svg>