<svg width="0" height="0" class="hidden"> <symbol xmlns="http://www.w3.org/2000/svg" viewBox="0 0 48 48" id="camera"> <g transform="translate(-141 -294)"> <rect width="48" height="48" rx="24" transform="translate(141 294)" opacity="0.27"></rect> <g transform="translate(148.988 304.983)"> <path d="M29.4,10.934H24.856L22.726,5.5H9.225l-2.13,5.434h-.7V8.217H3.2v2.717h-.64A2.584,2.584,0,0,0,0,13.542V29.5a2.6,2.6,0,0,0,2.574,2.626h26.8A2.6,2.6,0,0,0,31.951,29.5V13.542A2.584,2.584,0,0,0,29.4,10.934ZM4.26,9.3H5.325v1.63H4.26ZM30.886,29.5a1.526,1.526,0,0,1-1.509,1.539H2.574A1.526,1.526,0,0,1,1.065,29.5V13.542a1.508,1.508,0,0,1,1.491-1.521h5.26l2.13-5.434H22.005l2.13,5.434H29.4a1.508,1.508,0,0,1,1.491,1.521V29.5Z" transform="translate(0 -5.5)" fill="#fff"></path> <path d="M21.585,14.5a9.783,9.783,0,0,0,0,19.562,9.783,9.783,0,0,0,0-19.562Zm0,18.475a8.7,8.7,0,1,1,8.52-8.694A8.619,8.619,0,0,1,21.585,32.975Z" transform="translate(-5.61 -9.61)" fill="#fff"></path> <path d="M24.39,20.5a6.522,6.522,0,1,0,6.39,6.521A6.464,6.464,0,0,0,24.39,20.5Zm0,11.954a5.435,5.435,0,1,1,5.325-5.434A5.386,5.386,0,0,1,24.39,32.454Z" transform="translate(-8.415 -12.349)" fill="#fff"></path> <path d="M50.13,19.5a2.174,2.174,0,1,0,2.13,2.174A2.154,2.154,0,0,0,50.13,19.5Zm0,3.26A1.087,1.087,0,1,1,51.2,21.674,1.077,1.077,0,0,1,50.13,22.76Z" transform="translate(-22.439 -11.893)" fill="#fff"></path> </g> </g> </symbol> <symbol id="cheers" xmlns="http://www.w3.org/2000/svg" viewBox="0 0 32 32"> <path id="cheers-2" d="M-448.124-715.2l-.568-1.966a1.872,1.872,0,0,1-1.675-1.385,1.851,1.851,0,0,1,.14-1.331h0a1.867,1.867,0,0,1-.786-1.082,1.843,1.843,0,0,1,.138-1.33h0a1.87,1.87,0,0,1-.785-1.084,1.848,1.848,0,0,1,.138-1.33h0a1.867,1.867,0,0,1-.785-1.083,1.862,1.862,0,0,1,.856-2.1h0a4.884,4.884,0,0,1,.65-2.645,3.628,3.628,0,0,0,.364-2.766c0-.007-.113-.418-.268-1l-.247-.923c-.767-2.861-.957-3.569-.969-3.611a.626.626,0,0,1,.441-.765l2.415-.647a.649.649,0,0,1,.163-.021.624.624,0,0,1,.6.462c.292,1.091,1.213,4.528,1.483,5.535.014.056.031.11.045.154l0,.005h0a1.873,1.873,0,0,1,.867-.513,1.89,1.89,0,0,1,.487-.064,1.866,1.866,0,0,1,1.561.842l1.111,1.683a1.868,1.868,0,0,0,1.19.8l3.306.676a.626.626,0,0,1,.5.611v7.732a.627.627,0,0,1-.257.505l-2.4,1.742.731,2.612a.621.621,0,0,1-.059.477.628.628,0,0,1-.38.294l-7.246,1.941a.629.629,0,0,1-.162.022A.625.625,0,0,1-448.124-715.2Zm2.642-4.013a1.876,1.876,0,0,1-1.383,1.664l-.593.159.363,1.256,6.044-1.62-.64-2.287a.591.591,0,0,1-.062-.171h0Zm-2.03-.75-1.21.323a.623.623,0,0,0-.375.285.625.625,0,0,0-.065.483.626.626,0,0,0,.6.462.634.634,0,0,0,.163-.021l1.207-.323a.624.624,0,0,0,.378-.286.624.624,0,0,0,.065-.482.626.626,0,0,0-.6-.463A.617.617,0,0,0-447.512-719.964Zm.09-6.494a1.852,1.852,0,0,1-.2.7h0a1.869,1.869,0,0,1,.785,1.083,1.868,1.868,0,0,1-.139,1.328h0a1.87,1.87,0,0,1,.786,1.084,1.847,1.847,0,0,1-.139,1.331h0a1.885,1.885,0,0,1,.521.508h0l3.728-1h0l-1.618-6.037h0Zm-.738,4.078-1.208.323a.625.625,0,0,0-.377.286.621.621,0,0,0-.065.482.625.625,0,0,0,.6.463.634.634,0,0,0,.163-.022l1.207-.323a.622.622,0,0,0,.377-.285.622.622,0,0,0,.066-.483.625.625,0,0,0-.6-.462A.637.637,0,0,0-448.16-722.379Zm2.58-11.044a.624.624,0,0,0-.464.6h0a3.619,3.619,0,0,0,.922.758,4.854,4.854,0,0,1,2.279,2.972l.47,1.754c.345,1.288.441,1.645.628,2.342l.194.722.641,2.39v.005l0,.012.136.486,1.771-1.284v-6.9l-2.807-.575a3.109,3.109,0,0,1-1.981-1.339l-1.111-1.684a.625.625,0,0,0-.522-.281A.612.612,0,0,0-445.579-733.423Zm-3.227,8.629-1.209.323a.626.626,0,0,0-.376.286.624.624,0,0,0-.065.482.625.625,0,0,0,.6.463.627.627,0,0,0,.162-.021l1.208-.324a.622.622,0,0,0,.38-.292.621.621,0,0,0,.063-.475.624.624,0,0,0-.6-.463A.624.624,0,0,0-448.806-724.794Zm-.647-2.415-.537.145-.077.021-.613.165h0a.624.624,0,0,0-.422.761.627.627,0,0,0,.6.463.629.629,0,0,0,.162-.021l1.206-.324a.619.619,0,0,0,.381-.292.621.621,0,0,0,.062-.475.627.627,0,0,0-.605-.464A.62.62,0,0,0-449.454-727.209Zm1.707-.456h0l3.728-1-.028-.1a3.616,3.616,0,0,0-1.7-2.213,4.926,4.926,0,0,1-2.279-2.97l-.674-2.518-1.21.323.676,2.519a4.856,4.856,0,0,1-.489,3.712,3.671,3.671,0,0,0-.48,1.612h0l.426-.114a1.856,1.856,0,0,1,.483-.064A1.88,1.88,0,0,1-447.747-727.665Zm-2.809-10.9.325,1.21,1.209-.324-.323-1.209Zm-9.549,23.789-7.245-1.941a.618.618,0,0,1-.379-.291.618.618,0,0,1-.062-.475l.711-2.609-2.413-1.75a.627.627,0,0,1-.258-.505v-7.732a.626.626,0,0,1,.5-.611l3.307-.676a1.869,1.869,0,0,0,1.189-.8l1.111-1.683a1.867,1.867,0,0,1,1.561-.842,1.878,1.878,0,0,1,.487.065,1.88,1.88,0,0,1,.867.513h0v0c.017-.053.032-.1.046-.159.1-.367.566-2.112.946-3.528l.537-2.007a.625.625,0,0,1,.6-.463.64.64,0,0,1,.162.021l2.414.646a.619.619,0,0,1,.378.29h0a.622.622,0,0,1,.063.474l-.066.246-.186.694-1.231,4.591v0a3.622,3.622,0,0,0,.364,2.765,4.893,4.893,0,0,1,.65,2.646h0a1.882,1.882,0,0,1,.857,2.1,1.868,1.868,0,0,1-.785,1.085h0a1.844,1.844,0,0,1,.139,1.328,1.874,1.874,0,0,1-.786,1.084h0a1.843,1.843,0,0,1,.14,1.329,1.869,1.869,0,0,1-.787,1.083h0a1.876,1.876,0,0,1,.14,1.33,1.874,1.874,0,0,1-1.67,1.385h0l-.541,1.96a.625.625,0,0,1-.6.459A.63.63,0,0,1-460.1-714.771Zm-5.641-5.442a.649.649,0,0,1-.038.122l-.636,2.335,6.041,1.619.346-1.252-.6-.162a1.875,1.875,0,0,1-1.383-1.663h0l-3.728-1Zm4.992.691a.628.628,0,0,0,.065.481.623.623,0,0,0,.377.286l1.208.323a.622.622,0,0,0,.163.022.625.625,0,0,0,.6-.464.628.628,0,0,0-.443-.767l-1.208-.323a.638.638,0,0,0-.163-.021A.626.626,0,0,0-460.753-719.522Zm-3.05-7.935c-.252.941-1.588,5.924-1.618,6.036h0l3.727,1h0a1.859,1.859,0,0,1,.521-.507h0a1.846,1.846,0,0,1-.138-1.328,1.871,1.871,0,0,1,.785-1.086h0a1.85,1.85,0,0,1-.139-1.328,1.871,1.871,0,0,1,.785-1.085h0a1.864,1.864,0,0,1-.2-.7h0l-3.727-1Zm3.7,5.521a.619.619,0,0,0,.066.48.628.628,0,0,0,.378.287l1.206.322a.642.642,0,0,0,.164.022.627.627,0,0,0,.6-.464.618.618,0,0,0-.065-.48.627.627,0,0,0-.377-.287l-1.208-.323a.632.632,0,0,0-.162-.021A.628.628,0,0,0-460.107-721.936Zm-2.5-11.227-1.111,1.683a3.1,3.1,0,0,1-1.981,1.339l-2.807.575v6.9l1.774,1.286v0l.067-.252.033-.123.046-.171h0l.072-.267.047-.176,1.8-6.725a4.857,4.857,0,0,1,2.279-2.971,3.614,3.614,0,0,0,.923-.759h0a.625.625,0,0,0-.464-.6.622.622,0,0,0-.161-.021A.625.625,0,0,0-462.6-733.163Zm3.143,8.812a.623.623,0,0,0,.065.48.623.623,0,0,0,.377.285l1.207.324a.622.622,0,0,0,.162.021.628.628,0,0,0,.605-.465.614.614,0,0,0-.066-.479.627.627,0,0,0-.378-.287l-1.207-.323a.628.628,0,0,0-.162-.021A.627.627,0,0,0-459.459-724.351Zm.647-2.415a.622.622,0,0,0,.066.481.626.626,0,0,0,.378.286l1.206.323a.64.64,0,0,0,.163.022.626.626,0,0,0,.6-.464.623.623,0,0,0-.421-.76l-.008,0-1.221-.328a.614.614,0,0,0-.164-.022A.625.625,0,0,0-458.812-726.766Zm-.663-7.184a4.862,4.862,0,0,1-.87,1.743l0,0-.007.01-.013.019a4.846,4.846,0,0,1-1.386,1.193,3.59,3.59,0,0,0-1.332,1.333,3.66,3.66,0,0,0-.381.941l0,.015,0,.014,0,.013,3.727,1h0a1.869,1.869,0,0,1,1.543-.814,1.892,1.892,0,0,1,.488.065l.426.114h0a3.66,3.66,0,0,0-.48-1.612,4.859,4.859,0,0,1-.488-3.712l.675-2.519-1.21-.323Zm1-3.724,1.209.324.325-1.21-1.21-.324Zm6.785-5.136a.62.62,0,0,1-.182-.441.618.618,0,0,1,.183-.441l1.25-1.25a.621.621,0,0,1,.442-.183.619.619,0,0,1,.441.182.62.62,0,0,1,.183.442.619.619,0,0,1-.183.442l-1.249,1.249a.62.62,0,0,1-.441.183A.623.623,0,0,1-451.692-742.81Zm-5,0-1.25-1.249a.627.627,0,0,1,0-.883.62.62,0,0,1,.442-.183.623.623,0,0,1,.442.182l1.249,1.251a.619.619,0,0,1,.183.441.619.619,0,0,1-.184.442.62.62,0,0,1-.441.183A.621.621,0,0,1-456.691-742.81Zm2.318-1.066v-2.25a.624.624,0,0,1,.624-.624.625.625,0,0,1,.625.624v2.25a.625.625,0,0,1-.625.624A.625.625,0,0,1-454.373-743.876Z" transform="translate(469.75 746.75)"></path> </symbol> <symbol id="drinker" xmlns="http://www.w3.org/2000/svg" viewBox="0 0 32 32"> <path id="Path_1196" d="M291.912,139.9a.857.857,0,1,1-.856-.876A.866.866,0,0,1,291.912,139.9Zm0,0" transform="translate(-272.062 -130.173)"></path> <path id="Path_1197" d="M200.841,139.9a.857.857,0,1,1-.856-.876A.866.866,0,0,1,200.841,139.9Zm0,0" transform="translate(-186.683 -130.173)"></path> <path id="Path_1198" d="M221.225,187.277h-3.751a.722.722,0,0,0-.591.312.756.756,0,0,0-.095.672,2.691,2.691,0,0,0,5.123,0,.756.756,0,0,0-.095-.672A.722.722,0,0,0,221.225,187.277Zm-1.875,1.89a1.768,1.768,0,0,1-1.548-.93h3.1A1.768,1.768,0,0,1,219.35,189.167Zm0,0" transform="translate(-203.202 -175.339)"></path> <path id="Path_1199" d="M31.177,28.916h-.621V27.388c0-.322-.014-.646-.041-.966A2.8,2.8,0,0,0,31.4,24.37a2.764,2.764,0,0,0-2.257-2.737v-.381a1.783,1.783,0,0,0,.057-2.4,1.72,1.72,0,0,0-.937-.551,1.715,1.715,0,0,0-1.51-.918,1.686,1.686,0,0,0-.361.039,1.7,1.7,0,0,0-2.3-.606,1.718,1.718,0,0,0-1.361-.71h-.016a1.667,1.667,0,0,0-.855.236q-.385-.086-.776-.143a5.3,5.3,0,0,0,1.458-2.95h.079a2.042,2.042,0,0,0,2.017-2.062v-.622a1.706,1.706,0,0,0-1.685-1.722H22.6V8.489c0-.082,0-.163-.006-.244v-4.9a2.871,2.871,0,0,0-.974-2.163,2.737,2.737,0,0,0-2.24-.65L12.923,1.566A3.846,3.846,0,0,0,9.706,5.41V8.184c-.006.1-.009.2-.009.3v.353H9.339a1.706,1.706,0,0,0-1.685,1.723v.622a2.042,2.042,0,0,0,2.017,2.062H9.75a5.3,5.3,0,0,0,1.419,2.91A10.885,10.885,0,0,0,4.6,19.438a11.368,11.368,0,0,0-3.2,7.95v1.528H.822A.833.833,0,0,0,0,29.757v1.9a.833.833,0,0,0,.823.841h26.4a.48.48,0,0,0,0-.96H.938V29.875H9.686a.48.48,0,0,0,0-.959H7.1L2.76,24.476a10.2,10.2,0,0,1,9.475-7.43,3.478,3.478,0,0,0,3.245,2.316h1.336a3.478,3.478,0,0,0,3.24-2.3,9.929,9.929,0,0,1,1.082.12A1.77,1.77,0,0,0,21,17.86a1.818,1.818,0,0,0,.02.268,1.717,1.717,0,0,0-.806.5,1.786,1.786,0,0,0,.009,2.408V25.3a4.593,4.593,0,0,0,1.742,3.613H11.708a.48.48,0,0,0,0,.959H31.062v1.664H29.205a.48.48,0,0,0,0,.96h1.972A.833.833,0,0,0,32,31.658v-1.9a.833.833,0,0,0-.823-.841Zm-25.4,0H2.348V27.388a10.523,10.523,0,0,1,.157-1.815Zm24.69-4.546a1.812,1.812,0,0,1-1.4,1.775q.041-.226.061-.459a1.4,1.4,0,0,0,.017-2.626v-.446a1.815,1.815,0,0,1,1.319,1.756ZM10.645,5.41a2.9,2.9,0,0,1,2.423-2.9l6.456-1.032a1.814,1.814,0,0,1,1.485.431,1.9,1.9,0,0,1,.646,1.434V5.47a5.065,5.065,0,0,0-4.157-2.2H14.8a5.064,5.064,0,0,0-4.154,2.194Zm8.592,11.129A2.538,2.538,0,0,1,16.816,18.4H15.48a2.539,2.539,0,0,1-2.421-1.863.477.477,0,0,0-.229-.29,4.291,4.291,0,0,1-2.189-3.529.484.484,0,0,0-.195-.365.464.464,0,0,0-.274-.09.456.456,0,0,0-.126.018A.173.173,0,0,1,10,12.29H9.671a1.092,1.092,0,0,1-1.078-1.1v-.622A.756.756,0,0,1,9.339,9.8h.827a.475.475,0,0,0,.469-.48V8.65a.5.5,0,0,0,.009-.1V8.217A4.209,4.209,0,0,1,14.8,4.231h2.7a4.21,4.21,0,0,1,4.157,4.03v.292a.485.485,0,0,0,.006.073v.694a.475.475,0,0,0,.469.48h.827a.756.756,0,0,1,.746.763v.622a1.092,1.092,0,0,1-1.078,1.1H22.3a.174.174,0,0,1-.047-.007.46.46,0,0,0-.4.072.483.483,0,0,0-.195.365,4.292,4.292,0,0,1-2.189,3.529.478.478,0,0,0-.229.29ZM20.9,19.28a.758.758,0,0,1,.648-.249.5.5,0,0,0,.477-.233.528.528,0,0,0,.015-.54.812.812,0,0,1-.1-.395.8.8,0,0,1,.234-.563.764.764,0,0,1,.546-.233h.007a.787.787,0,0,1,.741.574.513.513,0,0,0,.381.364.5.5,0,0,0,.493-.171.772.772,0,0,1,.594-.28.787.787,0,0,1,.747.567.515.515,0,0,0,.288.328.5.5,0,0,0,.431-.017.755.755,0,0,1,.356-.088.782.782,0,0,1,.737.536.507.507,0,0,0,.458.347h0a.767.767,0,0,1,.551.266.8.8,0,0,1,.2.592.789.789,0,0,1-.724.734.759.759,0,0,1-.515-.153.955.955,0,0,0-.576-.191.991.991,0,0,0-.4.083.766.766,0,0,1-.66-.024.941.941,0,0,0-.875,0,.766.766,0,0,1-.716,0,.94.94,0,0,0-.89,0,.765.765,0,0,1-.7.012.949.949,0,0,0-.844,0,.758.758,0,0,1-.379.077.8.8,0,0,1-.528-1.34Zm.262,6.024V21.552a1.68,1.68,0,0,0,.217.026,1.7,1.7,0,0,0,.835-.171.034.034,0,0,1,.031,0,1.672,1.672,0,0,0,.743.173,1.691,1.691,0,0,0,.8-.2.022.022,0,0,1,.02,0,1.685,1.685,0,0,0,1.58.006.022.022,0,0,1,.018,0,1.692,1.692,0,0,0,.784.193,1.673,1.673,0,0,0,.673-.141.053.053,0,0,1,.047,0,1.7,1.7,0,0,0,1.02.341c.037,0,.075,0,.113,0a1.693,1.693,0,0,0,.172-.021V25.3a3.524,3.524,0,1,1-7.046,0Zm7.6,1.842a2.653,2.653,0,0,0,.845-.163c.005.135.008.271.008.406v1.528H27.4a4.571,4.571,0,0,0,1.36-1.771Zm0,0" transform="translate(0 -0.499)"></path> <path id="Path_1200" d="M387.918,345.171a.475.475,0,0,0,.469-.48v-3.7a.469.469,0,1,0-.938,0v3.7A.475.475,0,0,0,387.918,345.171Zm0,0" transform="translate(-363.234 -318.779)"></path> <path id="Path_1201" d="M425.238,345.171a.474.474,0,0,0,.469-.48v-3.7a.469.469,0,1,0-.938,0v3.7A.474.474,0,0,0,425.238,345.171Zm0,0" transform="translate(-398.221 -318.779)"></path> <path id="Path_1202" d="M351.418,344.691v-3.7a.469.469,0,1,0-.938,0v3.7a.469.469,0,1,0,.938,0Zm0,0" transform="translate(-328.575 -318.779)"></path> </symbol> <symbol xmlns="http://www.w3.org/2000/svg" xmlns:xlink="http://www.w3.org/1999/xlink" viewBox="0 0 100 100" id="favicon"> <defs> <linearGradient id="linear-gradient" x1="-0.042" y1="0.411" x2="0.948" y2="0.411" gradientUnits="objectBoundingBox"> <stop offset="0" stop-color="#ffe815"></stop> <stop offset="1" stop-color="#8abb2a"></stop> </linearGradient> <linearGradient id="linear-gradient-2" x1="0.022" y1="0.429" x2="1.063" y2="0.429" xlink:href="#linear-gradient"></linearGradient> <linearGradient id="linear-gradient-3" x1="0.071" y1="0.466" x2="1.049" y2="0.466" xlink:href="#linear-gradient"></linearGradient> <linearGradient id="linear-gradient-4" x1="-0.045" y1="0.524" x2="0.933" y2="0.524" xlink:href="#linear-gradient"></linearGradient> <linearGradient id="linear-gradient-5" x1="-0.057" y1="0.563" x2="0.985" y2="0.563" xlink:href="#linear-gradient"></linearGradient> <linearGradient id="linear-gradient-6" x1="0.057" y1="0.578" x2="1.048" y2="0.578" xlink:href="#linear-gradient"></linearGradient> </defs> <g id="Group_174347" transform="translate(-185.56 -60.246)"> <path id="Path_38751" d="M235.56,160.246l-50-25v-50l50-25,50,25v50Z" transform="translate(0 0)" fill="#252425"></path> <g id="Group_174342" transform="translate(193.893 68.579)"> <path id="Path_38752" d="M382,152.161a11.8,11.8,0,0,0-1.334-2.605,7.773,7.773,0,0,0-6.064-3.335c-.441-.037-.911-.049-1.389-.041a34.918,34.918,0,0,0-6.339.993c-.725.165-1.446.325-2.164.463a16.546,16.546,0,0,1-4.275.4c-.165-.014-.339-.032-.5-.06-2.8-.464-4.178-2.9-5.76-5.722a23.751,23.751,0,0,0-4.421-6.134c.152-.467.3-.944.44-1.424a23.108,23.108,0,0,1,1.94-4.9,5.637,5.637,0,0,1,5.213-2.965,11.022,11.022,0,0,1,1.117.041,24.415,24.415,0,0,1,4.9,1.041c2.439.737,5.09,1.766,7.653,2.76,4.358,1.695,8.481,3.294,11.685,3.562a7.356,7.356,0,0,0,3.311-.366A114.756,114.756,0,0,1,382,152.161" transform="translate(-303.359 -112.972)" stroke="#fff" stroke-miterlimit="10" stroke-width="0.25" fill="url(#linear-gradient)"></path> <path id="Path_38753" d="M384.936,223.658a11.773,11.773,0,0,0,1.92-2.321c1.49-2.38,1.334-4.754-.466-7.251a28.593,28.593,0,0,0-4.236-4.307c-.526-.471-1.057-.938-1.557-1.41a11.574,11.574,0,0,1-2.816-3.475c-.962-2.321.738-4.525,2.7-7.073a21.661,21.661,0,0,0,3.81-6.352c.529-.109,1.069-.229,1.608-.351a33.093,33.093,0,0,1,5.892-.943,11.385,11.385,0,0,1,1.154.036,5.7,5.7,0,0,1,4.5,2.48,14.78,14.78,0,0,1,1.984,5.046c.522,2.207.861,4.708,1.194,7.126.782,5.658,1.517,11.026,4.567,12.914a162.208,162.208,0,0,1-20.254,5.882" transform="translate(-321.857 -155.197)" stroke="#fff" stroke-miterlimit="10" stroke-width="0.25" fill="url(#linear-gradient-2)"></path> <path id="Path_38754" d="M305.122,278.109A151.7,151.7,0,0,1,288.969,265.7a18.411,18.411,0,0,0,1.918.267,12.365,12.365,0,0,0,1.358.045,7.681,7.681,0,0,0,6.949-3.887,24.116,24.116,0,0,0,2.108-5.288c.192-.625.383-1.249.587-1.854a10.534,10.534,0,0,1,2.005-3.8c1.787-1.913,4.714-1.706,8.4-1.446a30.1,30.1,0,0,0,8.228-.2c.385.346.779.693,1.168,1.039a27.374,27.374,0,0,1,3.963,4.013c1.408,1.951,1.536,3.638.4,5.458a16.006,16.006,0,0,1-4.008,4c-1.916,1.468-4.223,2.942-6.454,4.364-5.2,3.331-10.147,6.489-10.467,9.7" transform="translate(-262.833 -194.776)" stroke="#fff" stroke-miterlimit="10" stroke-width="0.25" fill="url(#linear-gradient-3)"></path> <path id="Path_38755" d="M274.908,113.814l-1.178-1.057a27.124,27.124,0,0,1-3.956-4c-1.406-1.951-1.523-3.63-.39-5.458a16.282,16.282,0,0,1,4.009-4c1.918-1.466,4.227-2.944,6.465-4.372,5.194-3.318,10.118-6.472,10.454-9.683a151.59,151.59,0,0,1,16.153,12.41,19.158,19.158,0,0,0-1.917-.264c-.471-.039-.929-.058-1.366-.051a7.656,7.656,0,0,0-6.939,3.9,23.963,23.963,0,0,0-2.1,5.267c-.2.635-.388,1.262-.6,1.872a10.618,10.618,0,0,1-2,3.8c-1.8,1.909-4.716,1.7-8.41,1.443a30.18,30.18,0,0,0-8.226.2" transform="translate(-249.265 -85.246)" stroke="#fff" stroke-miterlimit="10" stroke-width="0.25" fill="url(#linear-gradient-4)"></path> <path id="Path_38756" d="M222.8,163.306a5.654,5.654,0,0,1-4.488-2.476,14.742,14.742,0,0,1-2-5.051c-.518-2.2-.859-4.7-1.188-7.11-.785-5.666-1.52-11.042-4.569-12.926a163.081,163.081,0,0,1,20.255-5.882,12.567,12.567,0,0,0-1.92,2.323c-1.478,2.38-1.338,4.752.462,7.238a28.266,28.266,0,0,0,4.237,4.318c.528.466,1.057.937,1.555,1.4a11.52,11.52,0,0,1,2.814,3.474c.967,2.332-.734,4.533-2.7,7.09a21.488,21.488,0,0,0-3.8,6.341c-.523.115-1.057.234-1.6.349a32.8,32.8,0,0,1-5.908.943,10.994,10.994,0,0,1-1.154-.034" transform="translate(-210.56 -114.989)" stroke="#fff" stroke-miterlimit="10" stroke-width="0.25" fill="url(#linear-gradient-5)"></path> <path id="Path_38757" d="M240.148,242.96a24.759,24.759,0,0,1-4.9-1.033c-2.436-.738-5.083-1.771-7.65-2.763-4.358-1.7-8.483-3.3-11.686-3.564a7.241,7.241,0,0,0-3.308.372,115.748,115.748,0,0,1,4-18.291,12.4,12.4,0,0,0,1.35,2.6A7.724,7.724,0,0,0,224,223.622a13,13,0,0,0,1.408.039,34.18,34.18,0,0,0,6.34-1c.723-.162,1.438-.321,2.147-.457a16.307,16.307,0,0,1,4.272-.407c.178.015.343.035.5.062,2.806.46,4.18,2.9,5.77,5.721a23.538,23.538,0,0,0,4.429,6.14c-.159.452-.3.911-.442,1.372a22.65,22.65,0,0,1-1.95,4.944A5.618,5.618,0,0,1,241.265,243a11.024,11.024,0,0,1-1.117-.042" transform="translate(-211.921 -173.536)" stroke="#fff" stroke-miterlimit="10" stroke-width="0.25" fill="url(#linear-gradient-6)"></path> </g> </g> </symbol> <symbol xmlns="http://www.w3.org/2000/svg" viewBox="0 0 32 32" id="home"> <g id="home" transform="translate(0)"> <path id="home-2" d="M111.717,858V840.362l-1.39,1.279a.795.795,0,0,1-1.115-.041.781.781,0,0,1,.041-1.109L125,826l5.186,4.772v-1.8h5.925v7.247l4.637,4.267a.78.78,0,0,1,.041,1.109.794.794,0,0,1-1.115.04l-1.389-1.279V858Zm16.034-14.488a1.836,1.836,0,0,1,1.842,1.827v11.094h7.113V838.908L125,828.137l-11.705,10.771v17.524h7.113V845.339a1.836,1.836,0,0,1,1.842-1.827Zm-5.764,1.827v11.094h6.027V845.339a.261.261,0,0,0-.263-.259h-5.5A.261.261,0,0,0,121.987,845.339Zm9.779-13.114,2.767,2.546v-4.227h-2.767Z" transform="translate(-109 -826)"></path> </g> </symbol> <symbol id="location-pin" xmlns="http://www.w3.org/2000/svg" viewBox="0 0 26.122 32"> <path id="pin" d="M-4928.939,996a2.885,2.885,0,0,1-2.241-1.062l-7.71-9.43a13.7,13.7,0,0,1-3.062-9.843A12.782,12.782,0,0,1-4929.286,964h.694a12.782,12.782,0,0,1,12.666,11.665,13.7,13.7,0,0,1-3.062,9.843l-7.711,9.43A2.882,2.882,0,0,1-4928.939,996Zm-.347-30.834a11.514,11.514,0,0,0-7.82,3.052,11.512,11.512,0,0,0-3.684,7.542,12.549,12.549,0,0,0,.526,4.777,12.534,12.534,0,0,0,2.276,4.233l7.711,9.43a1.723,1.723,0,0,0,1.338.635,1.723,1.723,0,0,0,1.338-.635l7.71-9.43a12.531,12.531,0,0,0,2.277-4.233,12.523,12.523,0,0,0,.526-4.777,11.513,11.513,0,0,0-3.685-7.542,11.509,11.509,0,0,0-7.819-3.052Z" transform="translate(4942 -964.001)"></path> <g id="location-beer" transform="translate(-23.895 -170.501)"> <path id="Path_842" d="M276.357,451.29a.357.357,0,1,0,.357.357A.357.357,0,0,0,276.357,451.29Z" transform="translate(-237.854 -260.329)"></path> <path id="Path_843" d="M135.857,200.29a.357.357,0,0,0-.357.357v6.821a.357.357,0,0,0,.714,0v-6.821A.357.357,0,0,0,135.857,200.29Z" transform="translate(-102.372 -18.294)"></path> <path id="Path_844" d="M215.857,200.29a.357.357,0,0,0-.357.357v6.821a.357.357,0,1,0,.714,0v-6.821A.357.357,0,0,0,215.857,200.29Z" transform="translate(-179.515 -18.294)"></path> <path id="Path_845" d="M49.464,5.75H47.679V4.669A1.78,1.78,0,0,0,47,1.506a1.806,1.806,0,0,0-1.025.074A1.789,1.789,0,0,0,44.464.75a1.762,1.762,0,0,0-.673.133,3.2,3.2,0,0,0-4.881.567,3.222,3.222,0,0,0-3.41,3.2V8.939a1.082,1.082,0,0,0,1.089,1.071,1.07,1.07,0,0,0,.375-.068V16.5a1.788,1.788,0,0,0,1.786,1.786h7.143A1.788,1.788,0,0,0,47.679,16.5V15.429h1.786a1.788,1.788,0,0,0,1.786-1.786V7.536A1.788,1.788,0,0,0,49.464,5.75Zm-2.5,10.393h-1.09a.355.355,0,1,0,0,.711H46.9a1.076,1.076,0,0,1-1.01.718H38.75a1.073,1.073,0,0,1-1.01-.714h5.278a.357.357,0,0,0,0-.714h-5.34V6.411a2.48,2.48,0,0,0,1.862-1.375.265.265,0,0,1,.19.074,2.143,2.143,0,0,0,3.042-.039.118.118,0,0,1,.084-.036c.556,0,.92.119,1.081.353a1.2,1.2,0,0,1,.133.677V7.51a1.073,1.073,0,0,0,.714,1.01v5.811a.357.357,0,0,0,.714,0V8.52a1.073,1.073,0,0,0,.714-1.01V4.994a1.9,1.9,0,0,0,.75,0ZM46.019,4.177A.357.357,0,0,0,45.5,4.5V7.51a.357.357,0,0,1-.714,0V6.066a1.818,1.818,0,0,0-.259-1.083,1.9,1.9,0,0,0-1.669-.662.836.836,0,0,0-.6.254,1.428,1.428,0,0,1-2.028.025.978.978,0,0,0-.69-.279.718.718,0,0,0-.641.4,1.77,1.77,0,0,1-1.581,1,.357.357,0,0,0-.354.357v2.84a.386.386,0,0,1-.375.374.371.371,0,0,1-.375-.357V4.653a2.506,2.506,0,0,1,2.515-2.495,2.548,2.548,0,0,1,.324.021A.357.357,0,0,0,39.41,2a2.485,2.485,0,0,1,4.043-.441.357.357,0,0,0,.457.064,1.034,1.034,0,0,1,.554-.158,1.072,1.072,0,0,1,1.011.716.357.357,0,0,0,.536.179A1.072,1.072,0,0,1,47.65,3,1.1,1.1,0,0,1,46.019,4.177Zm1.66,3.716h1.429v5.393H47.679Zm2.857,5.75a1.073,1.073,0,0,1-1.071,1.071H47.679V14h1.786a.357.357,0,0,0,.357-.357V7.536a.357.357,0,0,0-.357-.357H47.679V6.464h1.786a1.073,1.073,0,0,1,1.071,1.071Z" transform="translate(-5.943 174.843)"></path> </g> </symbol> <symbol xmlns="http://www.w3.org/2000/svg" viewBox="0 0 32 32" id="locations"> <path d="M31.97,31.366,27.282,19.018a.469.469,0,0,0-.208-.242l-4.993-2.813,1.458-2.311a8.907,8.907,0,1,0-15.077,0L9.92,15.963,4.927,18.776a.469.469,0,0,0-.208.242L.031,31.366a.469.469,0,0,0,.668.575L8.235,27.7l7.535,4.245a.469.469,0,0,0,.46,0L23.766,27.7,31.3,31.941a.469.469,0,0,0,.668-.575Zm-15.5-7.07a1.4,1.4,0,0,0,.72-.576L21.2,17.355l2.032,9.563L16.469,30.73ZM9.255,13.151a7.968,7.968,0,1,1,13.491,0c-.063.1-6.239,9.894-6.347,10.063l0,0a.468.468,0,0,1-.793,0c-.063-.1-6.251-9.913-6.346-10.064l0,0ZM5.535,19.509,9.9,17.047l-.761,3.581a.469.469,0,1,0,.917.195l.737-3.469,4.014,6.366a1.408,1.408,0,0,0,.72.575V30.73L8.765,26.918l.905-4.26a.469.469,0,0,0-.917-.195l-.933,4.39L1.367,30.488ZM24.18,26.853,22.1,17.047l4.37,2.462,4.168,10.979Z" transform="translate(0 -0.001)" fill="#515c6f"></path> <path d="M-101.846-518.2a1,1,0,0,1-1-1v-4.085h-.058a.761.761,0,0,1-.76-.76V-527.1a1.7,1.7,0,0,1,.609-1.316l.04-.032a1.81,1.81,0,0,1,1.129-.391,1.881,1.881,0,0,1,.4.044,1.916,1.916,0,0,1,.53-.688,1.9,1.9,0,0,1,1.193-.423,1.9,1.9,0,0,1,1.385.6,1.035,1.035,0,0,1,.481-.117,1.037,1.037,0,0,1,.512.135,1.033,1.033,0,0,1,.358.341,1.337,1.337,0,0,1,.367-.051,1.374,1.374,0,0,1,.4.061,1.273,1.273,0,0,1,.857.874,1.322,1.322,0,0,1-.211,1.167,1.328,1.328,0,0,1-.421.364v.731h.864a1.374,1.374,0,0,1,1.373,1.373v2.8a1.374,1.374,0,0,1-1.373,1.373h-.864v1.059a.982.982,0,0,1-.287.7.989.989,0,0,1-.708.3Zm-.288-5.729v0a.038.038,0,0,0,0,.009v4.717a.291.291,0,0,0,.291.291h4.819a.291.291,0,0,0,.291-.291v-1.379c0-.011,0-.022,0-.034s0-.023,0-.034v-4.768q0-.017,0-.034c0-.011,0-.023,0-.034v-.9c-.1-.005-.253-.017-.409-.031v1.524a.868.868,0,0,1-.81.87l-.052,0a.859.859,0,0,1-.592-.235.867.867,0,0,1-.272-.628v-1.794a.056.056,0,0,0-.033-.052.04.04,0,0,0-.046,0l-.007.006h0a.4.4,0,0,0-.114.168.7.7,0,0,1-.2.28.768.768,0,0,1-.473.138,1.773,1.773,0,0,1-.245-.013.465.465,0,0,0-.055,0,.409.409,0,0,0-.337.169,1.831,1.831,0,0,1-1.5.781,1.884,1.884,0,0,1-.252-.017Zm6.967,2.962a.665.665,0,0,0,.664-.664v-2.8a.665.665,0,0,0-.664-.664h-.864v4.127Zm-7.408-6.926-.011.009-.014.011a1,1,0,0,0-.353.773v3.057a.051.051,0,0,0,.051.051h.025a.05.05,0,0,0,.033-.011v-1.662a.355.355,0,0,1,.16-.3.351.351,0,0,1,.194-.058.358.358,0,0,1,.142.029,1.209,1.209,0,0,0,.465.094,1.126,1.126,0,0,0,.918-.478,1.118,1.118,0,0,1,.917-.471,1.127,1.127,0,0,1,.142.009.926.926,0,0,0,.143.007h.043a1.082,1.082,0,0,1,.29-.405h0l.012-.011.015-.013a.747.747,0,0,1,.475-.172.757.757,0,0,1,.325.074.757.757,0,0,1,.439.691v1.792a.154.154,0,0,0,.049.113.159.159,0,0,0,.116.043.162.162,0,0,0,.145-.163V-526.8a.355.355,0,0,1,.123-.268.353.353,0,0,1,.232-.087.347.347,0,0,1,.051,0c.143.022.685.068.793.068a.6.6,0,0,0,.482-.241.609.609,0,0,0,.095-.546.579.579,0,0,0-.38-.39.681.681,0,0,0-.2-.03.6.6,0,0,0-.353.115.353.353,0,0,1-.208.067.36.36,0,0,1-.144-.03.35.35,0,0,1-.208-.287.323.323,0,0,0-.322-.289.322.322,0,0,0-.259.129.354.354,0,0,1-.282.141h-.02a.354.354,0,0,1-.285-.174,1.191,1.191,0,0,0-1.019-.582,1.194,1.194,0,0,0-1.158.927.354.354,0,0,1-.189.241.357.357,0,0,1-.157.036.355.355,0,0,1-.15-.033,1.162,1.162,0,0,0-.475-.1A1.11,1.11,0,0,0-102.576-527.9Z" transform="translate(115.397 533.155)" fill="#515c6f"></path> </symbol> <symbol id="venue" xmlns="http://www.w3.org/2000/svg" viewBox="0 0 32 27.999"> <path id="Path_1288" d="M29.171,5.563a.469.469,0,1,0-.742.573,12.513,12.513,0,0,1,2.633,7.715A12.66,12.66,0,1,1,27.1,4.664a.469.469,0,1,0,.645-.682,13.56,13.56,0,0,0-18.878.225H4V1.126A1.127,1.127,0,0,0,2.872,0H1.126A1.127,1.127,0,0,0,0,1.126v1.91a.469.469,0,0,0,.938,0V1.126A.188.188,0,0,1,1.126.938H2.872a.188.188,0,0,1,.188.188V26.873a.188.188,0,0,1-.188.188H1.126a.188.188,0,0,1-.188-.187V4.993a.469.469,0,0,0-.938,0v21.88A1.127,1.127,0,0,0,1.126,28H2.872A1.127,1.127,0,0,0,4,26.873V23.791H9.17a13.576,13.576,0,0,0,20-18.229ZM4,5.145H8a13.555,13.555,0,0,0,.254,17.708H4Zm0,0" transform="translate(0 0)"></path> <path id="Path_1289" d="M110.776,52.62a.469.469,0,0,0-.777.525,11.61,11.61,0,1,0-1.018-1.845.469.469,0,1,0,.859-.377,10.627,10.627,0,0,1-.9-4.295,10.738,10.738,0,1,1,1.833,5.992Zm0,0" transform="translate(-101.254 -32.776)"></path> <path id="Path_1290" d="M210.138,156a1.847,1.847,0,0,0-.555,1.318,1.866,1.866,0,0,0,.029.332,1.869,1.869,0,0,0-.921.538,1.862,1.862,0,0,0,.486,2.914v4.067a4.46,4.46,0,0,0,8.594,1.673H218a2.522,2.522,0,0,0,.1-5.042v-.47a1.86,1.86,0,0,0,.536-2.893,1.844,1.844,0,0,0-1.04-.589,22.847,22.847,0,0,1-3.678-1.856,1.859,1.859,0,0,0-.95.26,1.854,1.854,0,0,0-2.827-.25Zm3.5,12.691a3.526,3.526,0,0,1-3.522-3.522v-3.851a1.859,1.859,0,0,0,.743-.182.094.094,0,0,1,.081,0,1.845,1.845,0,0,0,.8.183,1.864,1.864,0,0,0,.862-.212.081.081,0,0,1,.072,0,1.862,1.862,0,0,0,1.711.007.079.079,0,0,1,.069,0,1.864,1.864,0,0,0,1.579.056.109.109,0,0,1,.105,0,1.863,1.863,0,0,0,1.018.358v3.636A3.526,3.526,0,0,1,213.637,168.687Zm5.943-4.372a1.586,1.586,0,0,1-1.544,1.583,4.458,4.458,0,0,0,.062-.734v-2.431A1.586,1.586,0,0,1,219.58,164.315Zm-7.249-7.256a.512.512,0,0,0,.881.19.924.924,0,0,1,1.587.331.513.513,0,0,0,.726.308.914.914,0,0,1,.421-.1.924.924,0,0,1,.872.618.509.509,0,0,0,.464.345.923.923,0,0,1,.884.993.925.925,0,0,1-.858.85.915.915,0,0,1-.609-.177,1.028,1.028,0,0,0-.61-.2,1.07,1.07,0,0,0-.42.086.926.926,0,0,1-.782-.028,1.017,1.017,0,0,0-.927,0,.925.925,0,0,1-.848,0,1.017,1.017,0,0,0-.942,0,.925.925,0,0,1-.825.014,1.026,1.026,0,0,0-.894,0,.916.916,0,0,1-.449.089.933.933,0,0,1-.871-.856.923.923,0,0,1,1.013-.984.512.512,0,0,0,.5-.763.923.923,0,1,1,1.689-.713Zm0,0" transform="translate(-195.178 -145.74)"></path> <path id="Path_1291" d="M288.309,269.855a.469.469,0,0,0-.469.469v3.148a.469.469,0,1,0,.938,0v-3.148A.469.469,0,0,0,288.309,269.855Zm0,0" transform="translate(-269.85 -252.989)"></path> <path id="Path_1292" d="M321.629,269.855a.469.469,0,0,0-.469.469v3.148a.469.469,0,1,0,.938,0v-3.148A.469.469,0,0,0,321.629,269.855Zm0,0" transform="translate(-301.088 -252.989)"></path> <path id="Path_1293" d="M255.363,269.855a.469.469,0,0,0-.469.469v3.148a.469.469,0,1,0,.938,0v-3.148A.469.469,0,0,0,255.363,269.855Zm0,0" transform="translate(-238.963 -252.989)"></path> <path id="Path_1294" d="M194.885,92.206c-.365-.745-1.1-.544-1.659-.269l-1.022.5a.436.436,0,0,0-.23.67l1.21,2.475a.436.436,0,0,0,.67.23l1.13-.552c.666-.325,1.1-.9.754-1.606a.841.841,0,0,0-.987-.522l0-.01a.8.8,0,0,0,.139-.916ZM193.2,93.668l-.4-.825.609-.3c.286-.14.6-.184.76.14.131.267.028.5-.333.674Zm1.748.319c.19.389-.117.615-.417.762l-.647.316-.445-.909.553-.271C194.367,93.7,194.749,93.579,194.949,93.987Zm0,0" transform="translate(-179.904 -85.958)"></path> <path id="Path_1295" d="M268.051,77.479l.224-.626h1.378l.219.626a.366.366,0,0,0,.386.235.391.391,0,0,0,.4-.376,1.174,1.174,0,0,0-.083-.329l-1.033-2.875a.423.423,0,0,0-.459-.313h-.2a.387.387,0,0,0-.417.261l-1.106,2.928a1.174,1.174,0,0,0-.083.329.365.365,0,0,0,.4.376A.345.345,0,0,0,268.051,77.479Zm.918-2.729h.01l.485,1.508h-1Zm0,0" transform="translate(-250.569 -69.207)"></path> <path id="Path_1296" d="M335.416,92.926c.174-.453.122-1.072-.828-1.437l-1.33-.512a.436.436,0,0,0-.647.288l-1.04,2.7a.428.428,0,0,0,.8.307l.4-1.028.789.3c.438.169.455.46.219,1.074a.53.53,0,0,0,.255.747.378.378,0,0,0,.5-.167,5.093,5.093,0,0,1,.17-.762c.137-.356.178-.681-.208-.9l0-.01a.9.9,0,0,0,.928-.61Zm-1.628.044-.8-.307.364-.945.823.317c.351.135.542.32.4.7-.152.395-.484.356-.786.24Zm0,0" transform="translate(-310.815 -85.242)"></path> </symbol> <symbol id="beer" xmlns="http://www.w3.org/2000/svg" viewBox="0 0 27.563 32"> <g id="Group_507" transform="translate(15.031 28.206)"> <g id="Group_506"> <path id="Path_842" d="M276.625,451.29a.625.625,0,1,0,.625.625A.625.625,0,0,0,276.625,451.29Z" transform="translate(-276 -451.29)"></path> </g> </g> <g id="Group_509" transform="translate(6.25 12.518)"> <g id="Group_508"> <path id="Path_843" d="M136.125,200.29a.625.625,0,0,0-.625.625v11.938a.625.625,0,0,0,1.25,0V200.915A.625.625,0,0,0,136.125,200.29Z" transform="translate(-135.5 -200.29)"></path> </g> </g> <g id="Group_511" transform="translate(11.25 12.518)"> <g id="Group_510" transform="translate(0)"> <path id="Path_844" d="M216.125,200.29a.625.625,0,0,0-.625.625v11.938a.625.625,0,0,0,1.25,0V200.915A.625.625,0,0,0,216.125,200.29Z" transform="translate(-215.5 -200.29)"></path> </g> </g> <g id="Group_513"> <g id="Group_512"> <path id="Path_845" d="M59.938,10.063H56.813V8.171a3.114,3.114,0,0,0-1.191-5.536,3.16,3.16,0,0,0-1.793.129,3.13,3.13,0,0,0-2.64-1.452,3.084,3.084,0,0,0-1.178.232,5.593,5.593,0,0,0-8.542.992A5.638,5.638,0,0,0,35.5,8.143v7.5a1.893,1.893,0,0,0,1.906,1.875,1.873,1.873,0,0,0,.656-.118V28.875A3.129,3.129,0,0,0,41.188,32h12.5a3.129,3.129,0,0,0,3.125-3.125V27h3.125a3.129,3.129,0,0,0,3.125-3.125V13.188A3.129,3.129,0,0,0,59.938,10.063ZM55.563,28.25H53.656a.622.622,0,1,0,0,1.244h1.8a1.884,1.884,0,0,1-1.767,1.256h-12.5A1.878,1.878,0,0,1,39.42,29.5h9.237a.625.625,0,1,0,0-1.25H39.313V11.219a4.339,4.339,0,0,0,3.259-2.407.463.463,0,0,1,.332.13,3.749,3.749,0,0,0,5.324-.068.206.206,0,0,1,.148-.062c.973,0,1.61.208,1.892.618a2.1,2.1,0,0,1,.233,1.184v2.529a1.878,1.878,0,0,0,1.25,1.768v10.17a.625.625,0,0,0,1.25,0V14.911a1.878,1.878,0,0,0,1.25-1.767v-4.4a3.316,3.316,0,0,0,1.313,0ZM53.908,7.309A.625.625,0,0,0,53,7.866v5.277a.625.625,0,1,1-1.25,0V10.615A3.181,3.181,0,0,0,51.3,8.72a3.32,3.32,0,0,0-2.921-1.158,1.462,1.462,0,0,0-1.047.444,2.5,2.5,0,0,1-3.549.045,1.712,1.712,0,0,0-1.208-.488,1.256,1.256,0,0,0-1.122.7,3.1,3.1,0,0,1-2.768,1.756.625.625,0,0,0-.62.625v4.97a.675.675,0,0,1-.656.655.65.65,0,0,1-.656-.625v-7.5a4.385,4.385,0,0,1,4.4-4.366,4.458,4.458,0,0,1,.568.036.625.625,0,0,0,.625-.314,4.35,4.35,0,0,1,7.075-.772.625.625,0,0,0,.8.112,1.809,1.809,0,0,1,.97-.276,1.877,1.877,0,0,1,1.77,1.254.625.625,0,0,0,.938.312,1.875,1.875,0,0,1,2.867,1.116A1.921,1.921,0,0,1,53.908,7.309Zm2.9,6.5h2.5V23.25h-2.5Zm5,10.063a1.877,1.877,0,0,1-1.875,1.875H56.813V24.5h3.125a.625.625,0,0,0,.625-.625V13.188a.625.625,0,0,0-.625-.625H56.813v-1.25h3.125a1.877,1.877,0,0,1,1.875,1.875Z" transform="translate(-35.5)"></path> </g> </g> </symbol> </svg>
