<svg id="venue" xmlns="http://www.w3.org/2000/svg" width="32" height="27.999" viewBox="0 0 32 27.999">
  <path id="Path_1288" data-name="Path 1288" d="M29.171,5.563a.469.469,0,1,0-.742.573,12.513,12.513,0,0,1,2.633,7.715A12.66,12.66,0,1,1,27.1,4.664a.469.469,0,1,0,.645-.682,13.56,13.56,0,0,0-18.878.225H4V1.126A1.127,1.127,0,0,0,2.872,0H1.126A1.127,1.127,0,0,0,0,1.126v1.91a.469.469,0,0,0,.938,0V1.126A.188.188,0,0,1,1.126.938H2.872a.188.188,0,0,1,.188.188V26.873a.188.188,0,0,1-.188.188H1.126a.188.188,0,0,1-.188-.187V4.993a.469.469,0,0,0-.938,0v21.88A1.127,1.127,0,0,0,1.126,28H2.872A1.127,1.127,0,0,0,4,26.873V23.791H9.17a13.576,13.576,0,0,0,20-18.229ZM4,5.145H8a13.555,13.555,0,0,0,.254,17.708H4Zm0,0" transform="translate(0 0)"/>
  <path id="Path_1289" data-name="Path 1289" d="M110.776,52.62a.469.469,0,0,0-.777.525,11.61,11.61,0,1,0-1.018-1.845.469.469,0,1,0,.859-.377,10.627,10.627,0,0,1-.9-4.295,10.738,10.738,0,1,1,1.833,5.992Zm0,0" transform="translate(-101.254 -32.776)"/>
  <path id="Path_1290" data-name="Path 1290" d="M210.138,156a1.847,1.847,0,0,0-.555,1.318,1.866,1.866,0,0,0,.029.332,1.869,1.869,0,0,0-.921.538,1.862,1.862,0,0,0,.486,2.914v4.067a4.46,4.46,0,0,0,8.594,1.673H218a2.522,2.522,0,0,0,.1-5.042v-.47a1.86,1.86,0,0,0,.536-2.893,1.844,1.844,0,0,0-1.04-.589,22.847,22.847,0,0,1-3.678-1.856,1.859,1.859,0,0,0-.95.26,1.854,1.854,0,0,0-2.827-.25Zm3.5,12.691a3.526,3.526,0,0,1-3.522-3.522v-3.851a1.859,1.859,0,0,0,.743-.182.094.094,0,0,1,.081,0,1.845,1.845,0,0,0,.8.183,1.864,1.864,0,0,0,.862-.212.081.081,0,0,1,.072,0,1.862,1.862,0,0,0,1.711.007.079.079,0,0,1,.069,0,1.864,1.864,0,0,0,1.579.056.109.109,0,0,1,.105,0,1.863,1.863,0,0,0,1.018.358v3.636A3.526,3.526,0,0,1,213.637,168.687Zm5.943-4.372a1.586,1.586,0,0,1-1.544,1.583,4.458,4.458,0,0,0,.062-.734v-2.431A1.586,1.586,0,0,1,219.58,164.315Zm-7.249-7.256a.512.512,0,0,0,.881.19.924.924,0,0,1,1.587.331.513.513,0,0,0,.726.308.914.914,0,0,1,.421-.1.924.924,0,0,1,.872.618.509.509,0,0,0,.464.345.923.923,0,0,1,.884.993.925.925,0,0,1-.858.85.915.915,0,0,1-.609-.177,1.028,1.028,0,0,0-.61-.2,1.07,1.07,0,0,0-.42.086.926.926,0,0,1-.782-.028,1.017,1.017,0,0,0-.927,0,.925.925,0,0,1-.848,0,1.017,1.017,0,0,0-.942,0,.925.925,0,0,1-.825.014,1.026,1.026,0,0,0-.894,0,.916.916,0,0,1-.449.089.933.933,0,0,1-.871-.856.923.923,0,0,1,1.013-.984.512.512,0,0,0,.5-.763.923.923,0,1,1,1.689-.713Zm0,0" transform="translate(-195.178 -145.74)"/>
  <path id="Path_1291" data-name="Path 1291" d="M288.309,269.855a.469.469,0,0,0-.469.469v3.148a.469.469,0,1,0,.938,0v-3.148A.469.469,0,0,0,288.309,269.855Zm0,0" transform="translate(-269.85 -252.989)"/>
  <path id="Path_1292" data-name="Path 1292" d="M321.629,269.855a.469.469,0,0,0-.469.469v3.148a.469.469,0,1,0,.938,0v-3.148A.469.469,0,0,0,321.629,269.855Zm0,0" transform="translate(-301.088 -252.989)"/>
  <path id="Path_1293" data-name="Path 1293" d="M255.363,269.855a.469.469,0,0,0-.469.469v3.148a.469.469,0,1,0,.938,0v-3.148A.469.469,0,0,0,255.363,269.855Zm0,0" transform="translate(-238.963 -252.989)"/>
  <path id="Path_1294" data-name="Path 1294" d="M194.885,92.206c-.365-.745-1.1-.544-1.659-.269l-1.022.5a.436.436,0,0,0-.23.67l1.21,2.475a.436.436,0,0,0,.67.23l1.13-.552c.666-.325,1.1-.9.754-1.606a.841.841,0,0,0-.987-.522l0-.01a.8.8,0,0,0,.139-.916ZM193.2,93.668l-.4-.825.609-.3c.286-.14.6-.184.76.14.131.267.028.5-.333.674Zm1.748.319c.19.389-.117.615-.417.762l-.647.316-.445-.909.553-.271C194.367,93.7,194.749,93.579,194.949,93.987Zm0,0" transform="translate(-179.904 -85.958)"/>
  <path id="Path_1295" data-name="Path 1295" d="M268.051,77.479l.224-.626h1.378l.219.626a.366.366,0,0,0,.386.235.391.391,0,0,0,.4-.376,1.174,1.174,0,0,0-.083-.329l-1.033-2.875a.423.423,0,0,0-.459-.313h-.2a.387.387,0,0,0-.417.261l-1.106,2.928a1.174,1.174,0,0,0-.083.329.365.365,0,0,0,.4.376A.345.345,0,0,0,268.051,77.479Zm.918-2.729h.01l.485,1.508h-1Zm0,0" transform="translate(-250.569 -69.207)"/>
  <path id="Path_1296" data-name="Path 1296" d="M335.416,92.926c.174-.453.122-1.072-.828-1.437l-1.33-.512a.436.436,0,0,0-.647.288l-1.04,2.7a.428.428,0,0,0,.8.307l.4-1.028.789.3c.438.169.455.46.219,1.074a.53.53,0,0,0,.255.747.378.378,0,0,0,.5-.167,5.093,5.093,0,0,1,.17-.762c.137-.356.178-.681-.208-.9l0-.01a.9.9,0,0,0,.928-.61Zm-1.628.044-.8-.307.364-.945.823.317c.351.135.542.32.4.7-.152.395-.484.356-.786.24Zm0,0" transform="translate(-310.815 -85.242)"/>
</svg>
